<svg width="56" height="56" viewBox="0 0 56 56" xmlns="http://www.w3.org/2000/svg" xmlns:xlink="http://www.w3.org/1999/xlink"><title>BTG</title><desc>Created with Sketch.</desc><defs><rect id="a" width="56" height="56" rx="28"/></defs><g fill="none"><rect id="Rectangle-1" fill="#F8921A" width="56" height="56" rx="28"/><g><use fill="#F8B536" xlink:href="#a"/><rect stroke="#012387" stroke-width="4" x="2" y="2" width="52" height="52" rx="26"/></g><path d="M31.867 15.02l-.008-5.654-3.348-.064.008 5.505c-.88-.017-1.78-.016-2.674-.015l-.008-5.541-3.346-.064.007 5.652c-.725.001-1.437.002-2.131-.011l-4.618-.107.006 3.676s2.472-.001 2.431.045c1.356.026 1.799.844 1.928 1.545l.01 6.441.354.031-.354-.006.013 9.023c-.059.438-.309 1.132-1.256 1.116.043.04-2.434-.047-2.434-.047l-.659 4.097 4.357.083c.811.016 1.609.046 2.392.066l.01 5.718 3.344.064-.008-5.658c.918.037 1.807.062 2.675.077l.007 5.632 3.348.064-.007-5.708c5.628-.224 9.565-1.607 10.046-7.031.388-4.367-1.617-6.358-4.813-7.208 1.94-.979 3.15-2.746 2.862-5.734-.387-4.083-3.812-5.515-8.134-5.987zm-5.911 21.735l-.01-7.576c2.27.044 9.384-.491 9.39 3.966.008 4.273-7.111 3.651-9.38 3.61zm-.026-17.916c1.89.036 7.826-.468 7.832 3.587.005 3.888-5.932 3.321-7.822 3.285l-.01-6.871z" fill="#012387"/></g></svg>