<?xml version="1.0" encoding="UTF-8" standalone="no"?>
<svg width="56px" height="56px" viewBox="0 0 56 56" version="1.1" xmlns="http://www.w3.org/2000/svg" xmlns:xlink="http://www.w3.org/1999/xlink">
    <!-- Generator: Sketch 46.2 (44496) - http://www.bohemiancoding.com/sketch -->
    <title>ETC</title>
    <desc>Created with Sketch.</desc>
    <defs/>
    <g id="Page-1" stroke="none" stroke-width="1" fill="none" fill-rule="evenodd">
        <g id="ethereum-classic">
            <g id="ETC">
                <rect id="Rectangle-1" fill="#21A313" x="0" y="0" width="56" height="56" rx="28"/>
                <g id="Page-1" transform="translate(27.875000, 28.000000) scale(-1, 1) translate(-27.875000, -28.000000) translate(16.000000, 9.000000)">
                    <polygon id="Fill-1" fill="#A2E9A7" points="11.8713911 0 11.6120894 0.865707434 11.6120894 25.9866235 11.8713911 26.2408681 23.7428657 19.3481966"/>
                    <polygon id="Fill-2" fill="#DFFFE2" points="11.8714746 0 0 19.3481966 11.8714746 26.2408681 11.8714746 14.0479712"/>
                    <polygon id="Fill-3" fill="#A2E9A7" points="11.8713911 28.448659 11.7252729 28.6237141 11.7252729 37.5723041 11.8713911 37.9914887 23.7499165 21.5594504"/>
                    <polygon id="Fill-4" fill="#DFFFE2" points="11.8714746 37.9913612 11.8714746 28.4486225 0 21.5593228"/>
                    <polygon id="Fill-5" fill="#72CF79" points="11.8713911 26.2407496 23.7426802 19.3481693 11.8713911 14.048035"/>
                    <polygon id="Fill-6" fill="#A2E9A7" points="8.34960938e-05 19.3481784 11.8713726 26.2408499 11.8713726 14.0480441"/>
                </g>
            </g>
        </g>
    </g>
</svg>