<?xml version="1.0" encoding="UTF-8" standalone="no"?>
<svg width="56px" height="56px" viewBox="0 0 56 56" version="1.1" xmlns="http://www.w3.org/2000/svg" xmlns:xlink="http://www.w3.org/1999/xlink">
    <!-- Generator: Sketch 48.2 (47327) - http://www.bohemiancoding.com/sketch -->
    <title>neo</title>
    <desc>Created with Sketch.</desc>
    <defs/>
    <g id="Page-1" stroke="none" stroke-width="1" fill="none" fill-rule="evenodd">
        <g id="neo">
            <g>
                <circle id="Oval-1" fill="#6FB92C" cx="28" cy="28" r="28"/>
                <path d="M12.0258496,15.5232079 C12.0841448,15.5211921 12.1312981,15.5532006 12.1809471,15.577391 C12.8075766,15.8831279 13.4339387,16.1893247 14.0610139,16.4941418 C14.1918663,16.557791 14.3147855,16.6372605 14.4440334,16.7026573 C14.8462173,16.906298 15.2513426,17.103868 15.6583398,17.2970231 C16.0203231,17.4688391 16.377493,17.6508648 16.7387632,17.8239686 C17.533415,18.204576 18.3317214,18.5770894 19.1232535,18.9649632 C20.9153426,19.843175 22.7098384,20.716144 24.5033538,21.5911365 C24.5078997,21.593344 24.5124457,21.5958274 24.5172591,21.5972071 C24.6426741,21.6326188 24.6777047,21.7131921 24.6774373,21.8489525 C24.6723565,23.8975921 24.6736045,25.9462317 24.6732479,27.9948712 C24.6722674,34.2549354 24.6711978,40.5149076 24.6702173,46.7749718 C24.6701281,46.8268477 24.6696825,46.8786317 24.6691476,46.9305076 C24.6684345,46.9901097 24.6375933,47.0015151 24.5905292,46.9798081 C24.5034429,46.9394295 24.4169805,46.8978552 24.3306964,46.855729 C22.5149861,45.9684113 20.699454,45.0804498 18.8834763,44.1935921 C16.6588969,43.1071407 14.4338719,42.0215172 12.2089359,40.9358937 C12.1512646,40.9077482 12.0960891,40.8664498 12.0258496,40.8865012 L12.0258496,15.5232079 Z" id="Fill-4" fill="#FFFFFF"/>
                <path d="M31.1767086,8.11665647 C31.208263,8.1612661 31.2593382,8.17386717 31.303639,8.19575807 C35.346068,10.1964768 39.3887643,12.1964597 43.4312825,14.1969944 C43.479327,14.2207249 43.5323632,14.2380169 43.5755053,14.2827185 C43.5350373,14.3211656 43.491717,14.3300875 43.4511599,14.34508 C39.6717727,15.7434308 35.8923855,17.1420575 32.1129983,18.5402244 C30.4169983,19.1677025 28.7206418,19.7944447 27.0244635,20.4215549 C26.4462351,20.6353132 25.867561,20.8479677 25.2904022,21.0648533 C25.2091989,21.0953902 25.1417226,21.0968618 25.0618563,21.0571271 C23.2071933,20.1355934 21.3512825,19.2166351 19.4958173,18.296941 C19.4687198,18.2835121 19.4429593,18.2674158 19.4164858,18.2525153 C19.4309259,18.1624682 19.3804747,18.103326 19.319327,18.056049 C19.1207309,17.9026287 18.9911265,17.6842714 18.824263,17.5009581 C18.6673827,17.3287741 18.527795,17.1398501 18.378937,16.9597559 C18.2364078,16.787296 18.090937,16.6173196 17.9481404,16.4450436 C17.7925081,16.2574073 17.6391933,16.0676554 17.4833827,15.880019 C17.337288,15.703972 17.1879844,15.5306843 17.0425136,15.3540853 C16.842224,15.1108939 16.6454997,14.8646672 16.4447643,14.6219356 C16.298937,14.4456126 16.1446418,14.276464 16.0031822,14.0965538 C15.9527309,14.0324447 15.8980011,13.9723827 15.8486195,13.9077217 C15.8108256,13.8581452 15.8240178,13.8302757 15.8906919,13.8308276 C15.987405,13.8314714 15.9759064,13.7684661 15.9711822,13.7052768 C16.4668702,13.5215035 16.9622908,13.3369025 17.4583354,13.154049 C18.1719621,12.8908982 18.8859454,12.6288511 19.5999287,12.3667121 C23.391171,10.9747998 27.1825025,9.58316342 30.9735666,8.19060727 C31.023483,8.17221155 31.083561,8.17138374 31.1163632,8.11665647 L31.1767086,8.11665647 Z" id="Fill-6" fill="#FFFFFF"/>
                <path d="M43.9301883,14.8711057 L43.9301883,40.4780426 C43.8628011,40.4929431 43.8152914,40.4567035 43.7653749,40.4367442 C39.4938652,38.7193196 35.222712,37.0010672 30.9518262,35.2822629 C30.8079599,35.2243164 30.8180323,35.2490586 30.8180323,35.0842329 C30.8174975,30.0117046 30.8168735,24.9392682 30.816517,19.8668319 C30.816517,19.7215057 30.8168735,19.7207698 30.9664446,19.6653067 C32.3932524,19.1358779 33.8200602,18.606541 35.246868,18.077572 C38.0864891,17.0248768 40.9261994,15.9723656 43.7659097,14.9197624 C43.816985,14.9008148 43.8663666,14.874049 43.9301883,14.8711057" id="Fill-8" fill="#FFFFFF"/>
                <path d="M15.9711465,13.7052952 C15.9759599,13.7684845 15.9874585,13.8314898 15.8907454,13.830754 C15.8239822,13.8302941 15.81079,13.8581636 15.8485838,13.9077401 C15.8979655,13.9724011 15.9526953,14.0324631 16.0031465,14.0965722 C16.1446061,14.2763904 16.2989014,14.445539 16.4447287,14.621862 C16.6454641,14.8645936 16.8421883,15.1109123 17.042478,15.3540118 C17.1879487,15.5307027 17.3372524,15.7038984 17.4834362,15.8800374 C17.6391577,16.0676738 17.7925616,16.2574257 17.9481939,16.445062 C18.0909905,16.617338 18.2363721,16.7872225 18.3789014,16.9596824 C18.5277593,17.1397765 18.6674362,17.3287925 18.8242273,17.5009765 C18.9911799,17.6841979 19.1206953,17.9026471 19.3192914,18.0560674 C19.380439,18.1032524 19.4308903,18.1623947 19.4165393,18.2525337 C19.2437036,18.1702128 19.0697092,18.0903754 18.8981214,18.0053872 C16.8847064,17.008431 14.8714696,16.010831 12.8585894,15.0125872 C12.8049292,14.9860053 12.7462774,14.9677016 12.6974306,14.9204246 C12.7211409,14.8738834 12.7686507,14.8724118 12.8071577,14.8582471 C13.8278596,14.4826064 14.8486507,14.1076096 15.8696201,13.7329807 C15.9024223,13.7209316 15.9372747,13.7144011 15.9711465,13.7052952" id="Fill-10" fill="#FFFFFF"/>
            </g>
        </g>
    </g>
</svg>