<?xml version="1.0" encoding="UTF-8" standalone="no"?>
<svg width="56px" height="56px" viewBox="0 0 56 56" version="1.1" xmlns="http://www.w3.org/2000/svg" xmlns:xlink="http://www.w3.org/1999/xlink">
    <!-- Generator: Sketch 48.2 (47327) - http://www.bohemiancoding.com/sketch -->
    <title>qtum</title>
    <desc>Created with Sketch.</desc>
    <defs/>
    <g id="Page-1" stroke="none" stroke-width="1" fill="none" fill-rule="evenodd">
        <g id="qtum">
            <circle id="Oval-1" fill="#2E9AD0" cx="28" cy="28" r="28"/>
            <g id="Qtum_logo" transform="translate(8.000000, 9.000000)" fill="#FFFFFF" fill-rule="nonzero">
                <path d="M38.9617367,31.4288227 C38.6875767,31.4288227 38.441814,31.479116 38.2300607,31.5603827 C37.996074,31.6505427 37.7874487,31.7719827 37.6147953,31.926696 L33.9407753,28.750304 L36.7659113,20.0115613 C36.7720447,20.0115613 36.796578,20.0115613 36.826018,20.0115613 C36.8321513,20.0115613 36.8474847,20.0115613 36.8661913,20.0115613 C37.2355407,20.0115613 37.5687647,19.8760147 37.861846,19.6020387 C38.1439793,19.3309453 38.2863953,18.9837987 38.2863953,18.5628373 C38.2863953,18.1643853 38.1437953,17.8231573 37.861846,17.5382027 C37.5686727,17.2671093 37.2365527,17.1287107 36.8661913,17.1287107 C36.8447247,17.1287107 36.826018,17.1287107 36.826018,17.1287107 C36.7953513,17.1287107 36.7757247,17.1287107 36.7659113,17.1287107 L34.292062,9.48777333 C34.4858753,9.37430667 34.647366,9.20564 34.7748167,8.98996133 C34.8882833,8.796148 34.9545233,8.56139467 34.9655633,8.287388 C34.9655633,7.888936 34.8229633,7.54767733 34.541014,7.26272267 C34.2561207,6.98058933 33.9147393,6.83817333 33.5163793,6.83817333 C33.3406593,6.84737333 33.1721153,6.87834667 33.0185673,6.92864 C32.8499007,6.98874667 32.7074233,7.07829333 32.594018,7.19176 L26.0656367,2.46375733 C26.0963033,2.38341067 26.1257433,2.303064 26.1561033,2.214744 C26.1622367,2.13439733 26.1653033,2.03197067 26.1653033,1.92157067 C26.1653033,1.52311867 26.0227033,1.18186 25.740754,0.896936 C25.4475807,0.614802667 25.1154607,0.472356 24.7450993,0.472356 C24.3938127,0.493822667 24.089722,0.596862667 23.8377953,0.779482667 C23.563942,0.984336 23.3951833,1.251228 23.3399833,1.570376 L15.42093,1.570376 C15.3507033,1.28118933 15.1829567,1.02138133 14.9230873,0.79454 C14.6590473,0.581713333 14.3630527,0.472356 14.044886,0.472356 C13.635394,0.472356 13.29113,0.614956 13.0202513,0.896936 C12.7350513,1.18182933 12.595702,1.52321067 12.595702,1.92157067 C12.595702,2.03105067 12.6018353,2.13041067 12.6263687,2.214744 C12.6478353,2.304904 12.666542,2.38647733 12.6965953,2.46375733 L6.16815267,7.19176 C6.028926,7.07829333 5.893686,6.98690667 5.758262,6.92864 C5.589902,6.87834667 5.41789267,6.84829333 5.24588333,6.83817333 C4.83599267,6.83817333 4.49203533,6.98077333 4.221218,7.26272267 C3.93571133,7.54792267 3.79679133,7.889028 3.79679133,8.287388 C3.79679133,8.56124133 3.85904467,8.79624 3.98692467,8.98996133 C4.10039133,9.20585467 4.26507133,9.374368 4.469986,9.48777333 L4.497586,9.48777333 L2.02382253,17.0847347 C2.00174253,17.0847347 1.9876972,17.0847347 1.97966253,17.0847347 C1.9505292,17.0847347 1.92847987,17.0847347 1.9214572,17.0847347 C1.51155733,17.0847347 1.1676,17.2273347 0.896810267,17.509284 C0.611364933,17.794484 0.472359067,18.1345773 0.472359067,18.5339493 C0.472359067,18.9434413 0.611463067,19.2877053 0.896810267,19.558584 C1.16759693,19.843784 1.51155733,19.9831333 1.9214572,19.9831333 C1.9214572,19.9831333 1.9288172,19.9831333 1.95059053,19.9831333 C1.96868387,19.9831333 1.98371053,19.9831333 1.99475053,19.9831333 L4.49780067,27.653388 C4.27086733,27.7818813 4.09895,27.949628 3.985422,28.1512 C3.85723533,28.3560533 3.79528867,28.593812 3.79528867,28.8537733 C3.79528867,29.2632653 3.93420867,29.6075293 4.219746,29.878408 C4.49053267,30.163608 4.83449,30.3029573 5.24438067,30.3029573 C5.41642067,30.3029573 5.588338,30.2722907 5.75675933,30.2127973 C5.892306,30.162504 6.027546,30.0882907 6.16665,29.9788107 L12.6951233,34.677496 C12.6644567,34.7679627 12.64483,34.8602693 12.6248967,34.941536 C12.60343,35.031696 12.59423,35.1322827 12.59423,35.219376 C12.59423,35.6258627 12.7337633,35.9691147 13.0187793,36.2440413 C13.2898727,36.5261747 13.634014,36.6685907 14.043414,36.6685907 C14.3615807,36.6685907 14.6586793,36.5621773 14.9216153,36.361464 C15.1816687,36.174704 15.350182,35.9118293 15.419458,35.5705707 L23.3385113,35.5705707 C23.3888047,35.9108173 23.5611513,36.1747653 23.8363233,36.361464 C24.0893233,36.5623307 24.3923407,36.6685907 24.7436273,36.6685907 C25.1129767,36.6685907 25.4462007,36.5259907 25.739282,36.2440413 C26.0214153,35.970188 26.1638313,35.6257707 26.1638313,35.219376 C26.1638313,35.129216 26.157698,35.0366027 26.1546313,34.941536 C26.1239647,34.8611893 26.0945247,34.7728693 26.0641647,34.677496 L33.5148153,29.3054627 L37.159518,32.452568 C37.059238,32.5991547 36.9877847,32.7677293 36.939638,32.95038 C36.8795313,33.1552333 36.8592913,33.348832 36.8694113,33.5214547 C36.8602113,34.0995827 37.0632247,34.582736 37.484646,34.985328 C37.8831287,35.3918147 38.3779353,35.6005627 38.9630553,35.6005627 C39.527138,35.6005627 40.0170073,35.3917227 40.426806,34.985328 C40.8252887,34.5828587 41.0310313,34.1000733 41.0420713,33.5214547 C41.0328713,32.9473747 40.826178,32.449348 40.426806,32.0285093 C40.017314,31.6300573 39.5265247,31.428332 38.9630553,31.428332 L38.9617367,31.4288227 Z M33.7653313,10.1308533 L36.0927473,17.3619 C35.9240807,17.46218 35.7925207,17.5848467 35.6973007,17.728244 C35.5878207,17.8677773 35.5105407,18.0284707 35.463314,18.2109987 L34.2630207,18.2109987 C34.202914,17.9592253 34.0912873,17.7422893 33.9257793,17.5666613 C33.7390193,17.394928 33.53435,17.2555173 33.3105447,17.1571387 L33.7653313,10.1308533 Z M33.0918607,9.662144 L32.5940487,17.1274533 C32.572582,17.1274533 32.5538753,17.1274533 32.5538753,17.1274533 C32.5232087,17.1366533 32.503582,17.14892 32.4937687,17.15812 L29.522322,11.5079707 C29.664922,11.4015573 29.7894287,11.2439307 29.8886353,11.0392613 C29.968982,10.856488 30.0091553,10.6548547 30.0201953,10.4390533 C30.0201953,10.43292 30.014062,10.39888 30.0109953,10.3366267 C29.9895287,10.2964533 29.9803287,10.2464667 30.0017953,10.19004 L32.402474,9.16537467 C32.4828207,9.27485467 32.5852473,9.37421467 32.724658,9.458548 C32.8151247,9.568028 32.9365647,9.62721467 33.0759447,9.634268 L33.0918607,9.662144 Z M24.9971793,17.15674 C24.9757127,17.16594 24.946886,17.1628733 24.8947527,17.14754 C24.834646,17.1414067 24.7852727,17.13834 24.748166,17.13834 C24.6779393,17.13834 24.6086327,17.1444733 24.5433127,17.14754 C24.473086,17.1690067 24.4007127,17.1877133 24.3234327,17.1877133 L20.371174,10.3079533 C20.4414007,10.25766 20.502734,10.1724067 20.5619207,10.0742733 C20.612214,9.99392667 20.6643473,9.89855333 20.722614,9.81023333 L27.1193127,10.615172 C27.125446,10.8200253 27.1895393,10.992556 27.2950327,11.1280413 C27.3753793,11.296708 27.499886,11.4322547 27.6463193,11.537564 L24.9971793,17.15674 Z M28.290718,11.8578773 C28.3213847,11.8578773 28.3710647,11.8640107 28.4373047,11.8670773 C28.4679713,11.888544 28.5075313,11.897744 28.5688647,11.8762773 C28.619158,11.8854773 28.6712913,11.8824107 28.729558,11.8670773 C28.7798513,11.860944 28.839038,11.8364107 28.9203047,11.8069707 L31.8917513,17.4718093 C31.763258,17.5812893 31.6688047,17.6944493 31.6136047,17.80902 C31.523138,17.9375133 31.4740713,18.0690733 31.467018,18.2044667 L26.138838,18.2044667 C26.0787313,18.06892 26.018318,17.93736 25.963118,17.80902 C25.8827713,17.6955533 25.7834113,17.5820867 25.6699447,17.4718093 L28.290718,11.8578773 Z M23.7237153,17.537344 C23.6234353,17.637624 23.551982,17.7382107 23.5038353,17.8444707 C23.4437287,17.9539507 23.3903687,18.0753907 23.343142,18.2108147 L15.4240887,18.2108147 C15.402622,18.075268 15.353862,17.954748 15.277502,17.8444707 C15.1971553,17.7380573 15.1198753,17.6356307 15.0435153,17.537344 L19.0250607,10.657584 C19.075354,10.657584 19.1274873,10.6637173 19.185754,10.666784 C19.2360473,10.6882507 19.3032073,10.6974507 19.3906073,10.675984 C19.460834,10.685184 19.5221673,10.6821173 19.581354,10.666784 C19.6316473,10.6606507 19.690834,10.657584 19.7721007,10.657584 L23.7237153,17.537344 Z M14.4433993,17.1860573 C14.3529327,17.179924 14.2857727,17.1645907 14.238546,17.145884 C14.1784393,17.1397507 14.1140393,17.136684 14.0477993,17.136684 C13.9876927,17.136684 13.9383193,17.1428173 13.9012127,17.145884 C13.841106,17.1673507 13.7947993,17.1765507 13.7696527,17.155084 L11.1202673,11.5341293 C11.255814,11.427716 11.3720407,11.2921693 11.471554,11.1246373 C11.5519007,10.9890907 11.6071007,10.8175107 11.647274,10.611768 L18.0439727,9.76266933 C18.094266,9.90220267 18.1463993,10.0046293 18.204666,10.069796 C18.2448393,10.170076 18.3070927,10.2495027 18.3954127,10.3037827 L14.4433993,17.1860573 Z M13.1259593,17.4792307 C12.997466,17.5693907 12.899026,17.673044 12.832786,17.7863267 C12.732506,17.92494 12.679146,18.06846 12.6720927,18.2109067 L7.37323,18.2109067 C7.31496333,18.0864 7.25240333,17.9588267 7.19751,17.8305173 C7.11716333,17.7170507 7.01811,17.6075707 6.90464333,17.5083333 L9.87609,11.8581533 C9.92638333,11.8581533 9.97851667,11.8642867 10.0367833,11.8673533 C10.0870767,11.88882 10.1462633,11.89802 10.22753,11.8765533 C10.2677033,11.8857533 10.3179967,11.8826867 10.3741167,11.8673533 C10.41429,11.86122 10.4645833,11.8581533 10.5207033,11.8581533 L13.1259593,17.4792307 Z M7.37335267,18.9284147 L12.6282393,18.9284147 C12.6684127,19.0970813 12.7346527,19.2395587 12.8330927,19.352964 C12.9033193,19.4814573 12.9977727,19.583884 13.126266,19.6600907 L10.4768807,25.2809533 C10.455414,25.2809533 10.4265873,25.2809533 10.374454,25.2809533 C10.3143473,25.2809533 10.264974,25.2809533 10.2278673,25.2809533 C10.1475207,25.2809533 10.0852673,25.2809533 10.0371207,25.2809533 C9.977014,25.2901533 9.923654,25.31162 9.87642733,25.3211267 L6.90498067,19.6270013 C7.01844733,19.5466547 7.117194,19.433188 7.19784733,19.3048173 C7.25304733,19.1913507 7.314994,19.0628573 7.37356733,18.924428 L7.37335267,18.9284147 Z M13.7700207,19.9822747 C13.8006873,19.9822747 13.8402473,19.988408 13.9015807,19.9914747 C13.941754,20.0221413 13.9917407,20.031648 14.0481673,20.0006747 C14.118394,20.0221413 14.183714,20.0098747 14.2530207,19.9914747 C14.3232473,19.9853413 14.3845807,19.970008 14.4437673,19.9513013 L18.3959033,26.801744 C18.3057433,26.8820907 18.2422633,26.966424 18.2051567,27.0507573 C18.14505,27.1602373 18.09169,27.252544 18.0444633,27.3285973 L11.6477953,26.5236587 C11.607622,26.3519253 11.5475153,26.1794253 11.4720753,26.0118013 C11.3717953,25.8692013 11.256182,25.729668 11.1207887,25.6023093 L13.7700207,19.9822747 Z M15.0434847,19.6018853 C15.1238313,19.5215387 15.1971247,19.4111387 15.2774713,19.2947587 C15.357818,19.1883453 15.401978,19.0678253 15.424058,18.9284147 L23.3431113,18.9284147 C23.3492447,19.067028 23.403218,19.188468 23.489698,19.2947587 C23.5599247,19.412212 23.6362847,19.5177053 23.7236847,19.6018853 L19.771518,26.45242 C19.7114113,26.46162 19.650998,26.4585533 19.595798,26.44322 C19.5255713,26.4217533 19.4571847,26.4125533 19.3909447,26.4125533 C19.3007847,26.4125533 19.233318,26.4217533 19.1860913,26.44322 C19.1259847,26.4646867 19.0615847,26.4833933 18.9953447,26.4833933 L18.9953447,26.4527267 L15.0434847,19.6018853 Z M24.3239233,19.953172 C24.40427,19.9746387 24.47051,19.9933453 24.5287767,19.9933453 C24.57907,20.024012 24.6382567,20.0335187 24.7195233,20.0025453 C24.7698167,20.024012 24.8369767,20.0117453 24.8952433,19.9933453 C24.9354167,19.987212 24.98571,19.9841453 25.04183,19.9841453 L25.0016567,19.9841453 L27.6511647,25.6050693 C27.5116313,25.7335627 27.3981647,25.872176 27.3139233,26.014592 C27.2234567,26.1832587 27.17439,26.3548387 27.1673367,26.5264493 L20.7266927,27.331388 C20.666586,27.2510413 20.6202793,27.1627213 20.5951327,27.0532413 C20.535026,26.9728947 20.4746127,26.8845747 20.4194127,26.804228 L24.3239233,19.953172 Z M25.6412407,19.6599987 C25.747654,19.579652 25.846094,19.480292 25.934414,19.352872 C26.0147607,19.2394053 26.0810007,19.0968053 26.1392673,18.9283227 L31.4674473,18.9283227 C31.5177407,19.066936 31.5738607,19.1954293 31.6431673,19.308712 C31.6934607,19.4372053 31.7968073,19.5356453 31.9363407,19.6018853 L28.8916007,25.3252973 C28.831494,25.3038307 28.778134,25.2946307 28.7309073,25.285124 C28.6708007,25.285124 28.6174407,25.285124 28.570214,25.285124 C28.5101073,25.285124 28.4638007,25.285124 28.438654,25.285124 C28.3684273,25.285124 28.318134,25.285124 28.2920673,25.285124 L25.6412407,19.6599987 Z M25.6719073,3.01686133 L32.171094,7.759492 C32.1404273,7.83983867 32.1208007,7.924172 32.1109873,8.00850533 C32.0803207,8.11798533 32.070814,8.210292 32.070814,8.286652 C32.061614,8.34675867 32.0646807,8.386932 32.080014,8.40410533 C32.1014807,8.44427867 32.1106807,8.484452 32.1106807,8.53566533 L32.1106807,8.495492 L29.6954353,9.56410267 C29.555902,9.41046267 29.3955153,9.27092933 29.2126807,9.15461067 C29.0078273,9.04819733 28.7921487,8.99391733 28.5683127,8.99391733 C28.508206,8.99391733 28.4618993,8.99391733 28.4367527,8.99391733 C28.366526,9.00311733 28.3162327,9.024584 28.290166,9.03409067 L28.3208327,9.03409067 L25.642038,3.06184933 C25.642038,3.07104933 25.642038,3.06798267 25.642038,3.05264933 C25.642038,3.03118267 25.6481713,3.02198267 25.6727047,3.02198267 L25.6719073,3.01686133 Z M24.1935287,3.26587467 C24.2738753,3.306048 24.3582087,3.33610133 24.4575687,3.33610133 C24.5379153,3.357568 24.6222487,3.366768 24.7216087,3.366768 C24.761782,3.38823467 24.8117687,3.375968 24.8681953,3.357568 C24.898862,3.35143467 24.938422,3.348368 24.9997553,3.348368 L27.6931167,9.32057867 C27.5646233,9.39080533 27.47017,9.47820533 27.41497,9.58461867 C27.3346233,9.69409867 27.27237,9.80756533 27.2242233,9.920848 L20.79833,9.07174933 C20.78913,8.94724267 20.7581567,8.81874933 20.7078633,8.69136 C20.6477567,8.56685333 20.5833567,8.45737333 20.5180367,8.369176 L24.1935287,3.26587467 Z M15.4254687,2.285308 L23.344522,2.285308 C23.3506553,2.385588 23.3846953,2.47912133 23.4469487,2.56345467 C23.497242,2.67293467 23.553362,2.76432133 23.6226687,2.84160133 L19.875386,7.89157333 C19.8051593,7.88544 19.732786,7.87010667 19.655506,7.8514 C19.555226,7.84526667 19.468746,7.8422 19.391466,7.8422 C19.281986,7.8422 19.182626,7.84833333 19.0982927,7.8514 C19.007826,7.87286667 18.9265593,7.90169333 18.8492793,7.94156 L18.8492793,7.90138667 L15.145942,2.85132267 C15.1962353,2.770976 15.2633953,2.68664267 15.321662,2.58728267 C15.3719553,2.517056 15.4020087,2.42260267 15.4240887,2.29410933 L15.4254687,2.285308 Z M14.0495167,3.36845467 C14.1298633,3.36845467 14.2181833,3.36232133 14.3276633,3.337788 C14.40801,3.33165467 14.49633,3.30712133 14.5766767,3.26756133 L18.29455,8.36150933 C18.19427,8.45166933 18.1228167,8.55930933 18.07467,8.68366267 C18.0145633,8.812156 17.9842033,8.93972933 17.9722433,9.064052 L11.5462273,9.91318133 C11.4861207,9.79971467 11.4257073,9.686248 11.3705073,9.576952 C11.2800407,9.47053867 11.198774,9.38313867 11.121494,9.312912 L13.8001967,3.34067067 C13.80633,3.34067067 13.84037,3.346804 13.9026233,3.34987067 C13.9427967,3.38053733 13.99309,3.390044 14.04921,3.35907067 L14.0495167,3.36845467 Z M13.1271553,3.017168 C13.1271553,3.017168 13.1271553,3.026368 13.1271553,3.04783467 C13.1271553,3.06930133 13.1363553,3.07850133 13.1673287,3.05703467 L10.473998,9.029184 C10.4138913,9.00771733 10.373718,8.99851733 10.3565447,8.98901067 C10.3163713,8.98901067 10.276198,8.98901067 10.2249847,8.98901067 C9.979958,8.98901067 9.76431,9.039304 9.58061667,9.149704 C9.37576333,9.26715733 9.21126733,9.40577067 9.097862,9.559196 L6.65339133,8.490616 C6.67179133,8.48448267 6.68651133,8.45044267 6.69755133,8.38818933 C6.69755133,8.35752267 6.69755133,8.31796267 6.69755133,8.25662933 C6.68528467,8.17628267 6.66995133,8.07692267 6.65339133,7.97848267 C6.62579133,7.898136 6.602178,7.82882933 6.59512467,7.75860267 L13.1271553,3.017168 Z M6.37917,9.16503733 L8.82361,10.1897027 C8.79294333,10.2498093 8.78343667,10.2991827 8.78343667,10.3362893 C8.78343667,10.396396 8.78343667,10.4457693 8.78343667,10.482876 C8.77423667,10.680676 8.81410333,10.867252 8.91499667,11.0388933 C8.99534333,11.2437467 9.11279667,11.40122 9.28131,11.5076027 L6.30983267,17.157752 C6.288366,17.157752 6.273646,17.157752 6.26567267,17.157752 C6.235006,17.157752 6.22549933,17.157752 6.235006,17.157752 L5.70809133,9.63396133 C5.843638,9.593788 5.975198,9.527548 6.10332333,9.429108 C6.21679,9.34876133 6.31185667,9.264428 6.38147,9.16629467 L6.37917,9.16503733 Z M5.03250467,27.0084987 L2.67583267,19.77736 C2.81843267,19.6970133 2.95397933,19.56852 3.07106467,19.411016 C3.166438,19.2865093 3.24678467,19.125816 3.305358,18.9282613 L4.578822,18.9282613 C4.645062,19.1619413 4.761902,19.3708733 4.93010867,19.543496 C5.08374867,19.730256 5.274066,19.8686853 5.50099933,19.952988 L5.52859933,19.952988 L5.03250467,27.0084987 Z M4.57873,18.2111213 L3.30523533,18.2111213 C3.28376867,18.039388 3.21384867,17.8668573 3.100382,17.699264 C2.96115533,17.556664 2.82959533,17.4321573 2.70515,17.33292 L5.032566,10.1310987 L5.530286,17.1864867 C5.28495267,17.2867667 5.08384067,17.42446 4.930078,17.5959787 C4.761718,17.7827387 4.64457133,17.987408 4.57879133,18.2112133 L4.57873,18.2111213 Z M5.705822,27.506096 L6.23276733,19.9823053 C6.22050067,19.9823053 6.23276733,19.9823053 6.26036733,19.9823053 C6.26650067,19.9823053 6.281834,19.9823053 6.30452733,19.9823053 L9.275974,25.6324547 C9.10730733,25.771988 8.98678733,25.928388 8.90963,26.101164 C8.80935,26.298964 8.76703,26.499616 8.77807,26.701372 C8.77807,26.7614787 8.77807,26.801652 8.77807,26.8188253 C8.77807,26.8589987 8.78727,26.899172 8.81824333,26.9503853 L6.373742,27.9750507 C6.275302,27.861584 6.17624867,27.762224 6.08087533,27.6818773 C5.97108867,27.631584 5.842902,27.564424 5.70027133,27.5061573 L5.705822,27.506096 Z M13.1271553,34.1223987 L6.59874333,29.4237133 C6.60487667,29.3433667 6.62634333,29.26302 6.65701,29.1747 C6.67541,29.0943533 6.69013,28.9919267 6.70117,28.8815267 C6.70117,28.85086 6.70117,28.8113 6.70117,28.7499667 C6.68890333,28.7097933 6.67357,28.6595 6.65701,28.60338 L6.65701,28.6435533 L9.072286,27.5749427 C9.19679267,27.7436093 9.357486,27.879156 9.55507133,27.9844653 C9.74888467,28.0939453 9.96456333,28.1451587 10.1994087,28.1451587 C10.2300753,28.1451587 10.2797553,28.1451587 10.3459953,28.1451587 C10.376662,28.1451587 10.416222,28.1359587 10.4775553,28.1049853 L13.170886,34.077104 C13.1402193,34.1077707 13.1307127,34.1172773 13.1307127,34.1172773 L13.1271553,34.1223987 Z M14.5763393,33.8733853 C14.4959927,33.867252 14.4116593,33.8427187 14.327326,33.8031587 C14.217846,33.7970253 14.1264593,33.781692 14.0491793,33.772492 C13.9890727,33.772492 13.9396993,33.7786253 13.9025927,33.781692 C13.842486,33.8031587 13.7961793,33.8123587 13.7710327,33.790892 L13.8016993,33.790892 L11.1229967,27.8187733 C11.2033433,27.7485467 11.28369,27.6651333 11.37201,27.5547333 C11.4223033,27.4642667 11.4894633,27.3458933 11.54773,27.218504 L11.5783967,27.218504 L17.9750953,28.0234427 C17.9812287,28.1700293 18.0152687,28.305576 18.077522,28.4188893 C18.1278153,28.5473827 18.198042,28.663916 18.297402,28.770176 L17.653034,29.6192747 L14.5763393,33.8733853 Z M23.3443073,34.8539827 L15.425254,34.8539827 C15.4037873,34.773636 15.3749607,34.674276 15.3228273,34.5608093 C15.2627207,34.4513293 15.2023073,34.366996 15.1471073,34.2967693 L18.8504447,29.1735347 C18.9307913,29.2336413 19.011138,29.2636947 19.099458,29.2636947 C19.1798047,29.2851613 19.2822313,29.2943613 19.3926313,29.2728947 C19.472978,29.2820947 19.561298,29.279028 19.670778,29.2636947 C19.7511247,29.2636947 19.8394447,29.233028 19.9489247,29.1735347 L19.918258,29.1735347 L23.6215953,34.2967693 C23.5513687,34.4031827 23.493102,34.4945693 23.4458753,34.5746093 C23.3857687,34.6810227 23.3554087,34.7724093 23.3434487,34.852756 L23.3443073,34.8539827 Z M24.9983447,33.8000307 C24.938238,33.8092307 24.8919313,33.806164 24.8667847,33.7908307 C24.806678,33.7846973 24.7573047,33.7816307 24.720198,33.7816307 C24.619918,33.7908307 24.533438,33.8030973 24.456158,33.8122973 C24.355878,33.8524707 24.269398,33.882524 24.192118,33.882524 L20.474122,28.7886067 C20.5544687,28.6821933 20.638802,28.56566 20.7081087,28.43732 C20.758402,28.3238533 20.7884553,28.1883067 20.7985753,28.0418733 L27.2244687,27.2369347 C27.274762,27.365428 27.3339487,27.474908 27.4152153,27.5591187 C27.485442,27.6685987 27.561802,27.7596787 27.649202,27.8372653 L25.0728953,33.5899027 L24.9983447,33.8000307 Z M25.6718153,34.1222147 C25.6503487,34.1222147 25.6411487,34.1222147 25.6411487,34.1222147 C25.6411487,34.1222147 25.6411487,34.1130147 25.6411487,34.0820413 L25.7113753,33.9063213 L28.3169073,28.1098307 C28.3230407,28.1404973 28.3672007,28.150004 28.4343607,28.150004 C28.4650273,28.150004 28.5045873,28.150004 28.5659207,28.150004 C28.7885607,28.150004 29.0055273,28.0997107 29.210258,28.0034173 C29.3930313,27.9230707 29.554522,27.7945773 29.6930433,27.6079707 L29.6930433,27.577304 L32.8108313,28.9240307 L25.6718153,34.1222147 Z M29.9900193,26.94968 C29.9808193,26.8993867 29.983886,26.85952 29.9992193,26.81812 C30.0053527,26.7966533 30.0084193,26.7580133 30.0084193,26.7006667 C29.9992193,26.48784 29.958126,26.2911747 29.8768593,26.1155467 C29.7765793,25.9438133 29.6539127,25.7793173 29.5105153,25.6327613 L32.525846,19.9534173 C32.5319793,19.9534173 32.5473127,19.9534173 32.5660193,19.9534173 C32.5721527,19.9534173 32.5752193,19.9534173 32.5752193,19.9534173 L33.1171913,28.3261227 L29.9900193,26.94968 Z M33.3127527,19.9089507 C33.5356993,19.828604 33.737302,19.7040973 33.9129607,19.5285613 C34.0555607,19.3749213 34.161974,19.1732573 34.2200873,18.9283533 L35.464326,18.9283533 C35.5146193,19.1261533 35.5888327,19.2866627 35.6983127,19.411108 C35.7884727,19.5687347 35.925246,19.6932413 36.0937593,19.777452 L33.7663433,27.0085907 L33.3127527,19.9089507 Z" id="path6171"/>
            </g>
        </g>
    </g>
</svg>