<?xml version="1.0" encoding="UTF-8" standalone="no"?>
<svg width="56px" height="56px" viewBox="0 0 56 56" version="1.1" xmlns="http://www.w3.org/2000/svg" xmlns:xlink="http://www.w3.org/1999/xlink">
    <!-- Generator: Sketch 48.2 (47327) - http://www.bohemiancoding.com/sketch -->
    <title>stellar</title>
    <desc>Created with Sketch.</desc>
    <defs/>
    <g id="Page-1" stroke="none" stroke-width="1" fill="none" fill-rule="evenodd">
        <g id="stellar">
            <circle id="Oval-1" fill="#44B3E2" cx="28" cy="28" r="28"/>
            <g id="Page-1" transform="translate(8.000000, 10.000000)">
                <path d="M9.35027462,24.1469881 C8.19724495,23.3043132 7.57973396,22.2982483 8.30410209,20.8795883 C8.55028451,20.3976578 8.08586692,20.4079074 7.85612407,20.3243031 C5.62404275,19.512377 3.35065703,19.3134149 1.02014385,19.8946254 C0.804374615,19.9484858 0.527162527,20.2951622 0.309338352,19.9320061 C0.167136154,19.6948594 0.381877912,19.4942895 0.53229989,19.3132139 C2.79561637,16.5864283 5.39306692,14.3407692 9.05004714,13.5919482 C9.86544934,13.4249406 10.6935922,13.3905745 11.4993362,13.4830215 C12.3235746,13.5774782 13.9137098,13.2416543 14.2881208,12.587692 C23.0107896,18.1201782 27.3467797,20.9085952 27.2960911,20.952943 C25.8816724,22.1869099 26.7034636,23.3949515 27.4413944,25.3801511 C28.7053911,28.7795894 27.5593482,32.0859778 25.8003153,35.1497931 C25.5081021,35.6584528 25.2703449,36.576894 24.7541427,36.4862557 C24.1939647,36.3881814 24.4389142,35.4671276 24.3186999,34.908426 C23.8951757,32.9380983 22.9766153,31.2097406 21.6437779,29.6867762 C21.4793823,29.4992695 21.2917658,29.188768 20.9952373,29.5294153 C19.8370702,30.8598487 18.5952669,30.4335875 17.3343526,29.7122996 C16.8539065,29.6465818 16.5076482,29.3272376 16.1130988,29.0979288 C14.327968,27.8026654 12.4657768,26.6133142 10.6833175,25.3148353 C10.2532175,24.91048 9.57796253,24.7720104 9.35027462,24.1469881" id="Fill-4" fill="#5A6A73"/>
                <path d="M16.3013729,28.980521 C16.6821542,29.1752627 17.0520443,29.3846754 17.3341882,29.7124604 C16.0179959,31.7410699 14.4200707,33.5043966 12.2243619,34.6483282 C10.6997981,35.4423679 9.04207396,35.9920258 7.51381132,34.8181494 C6.01945527,33.6703994 6.07637725,31.975805 6.37208385,30.3079399 C6.78368934,27.9871173 7.86089154,25.9709681 9.35031571,24.1469479 L10.7445959,25.1286952 C10.7384311,25.7742167 10.257163,26.2165556 10.0029663,26.7543562 C9.50957396,27.7984048 9.1191344,28.8601389 9.18119374,30.02879 C9.26236407,31.5565778 10.2990838,32.3152464 11.8152223,31.9938925 C12.892219,31.7653875 13.7351575,31.1709129 14.5219959,30.4504289 C15.0879278,29.9323236 15.5085751,29.237765 16.3013729,28.980521" id="Fill-6" fill="#EE8100"/>
                <path d="M29.4074631,18.0838291 C26.3022356,21.4694003 22.1432136,26.1898031 19.1271708,29.6537534 C18.3460862,30.5506906 17.9809224,30.6216337 16.9548884,29.9224527 C14.2635268,28.0883839 11.583262,26.2386393 8.91882022,24.3677927 C7.85456418,23.6205794 7.79620374,23.2678739 8.41350923,22.1930766 C10.8042323,18.0297445 14.5039741,12.7229059 16.861818,8.54450083 C18.9989609,4.75758887 22.2626246,2.62849344 26.3392246,1.44778401 C27.9410543,0.983941059 29.5761741,0.674042517 31.2579411,0.571948834 C32.1054004,0.520500048 32.4944015,0.792012973 32.6978411,1.57540112 C33.2130158,3.55999781 33.4396763,5.57755389 33.5383136,7.60616341 C33.6141411,11.6513241 32.1680763,15.0738742 29.4074631,18.0838291 Z" id="Fill-12" fill="#FFFFFF"/>
                <path d="M16.3024459,29.4989366 C15.1638007,30.7329837 14.0913802,32.0630275 12.5122474,32.7831163 C11.3943557,33.2931982 10.196015,33.7640606 9.00793445,32.9076155 C7.75642742,32.0053383 7.7582929,30.6923961 7.99381034,29.4049922 C8.28179454,27.8293703 8.95663363,26.3873685 9.99687452,25.1286952 C12.0988094,26.5855183 14.2005111,28.0423415 16.3024459,29.4989366" id="Fill-14" fill="#EEBB00"/>
                <path d="M24.702976,16.0171293 C22.0199171,16.0090257 19.7566357,13.6888876 19.7903733,10.9812288 C19.8249288,8.21622102 22.0935264,6.00288497 24.8788205,6.0172222 C27.5588123,6.03072829 29.8253652,8.3585544 29.7895829,11.060603 C29.7529828,13.8389091 27.5089215,16.0254408 24.702976,16.0171293" id="Fill-16" fill="#5A6A73"/>
            </g>
        </g>
    </g>
</svg>