<?xml version="1.0" encoding="utf-8"?>
<!-- Generator: Adobe Illustrator 19.0.0, SVG Export Plug-In . SVG Version: 6.00 Build 0)  -->
<svg version="1.1" id="Layer_1" xmlns="http://www.w3.org/2000/svg" xmlns:xlink="http://www.w3.org/1999/xlink" x="0px" y="0px"
	 viewBox="-39 11 180 180" style="enable-background:new -39 11 180 180;" xml:space="preserve">
<style type="text/css">
	.st0{fill:#53A6CC;}
	.st1{fill:#71CCF3;}
	.st2{fill:#4E4E4E;}
	.st3{fill:#FDC57E;}
	.st4{fill:#B6E4FA;}
	.st5{fill:#FFFFFF;}
	.st6{fill:#91AAB3;}
</style>
<g id="XMLID_108_">
	<g id="XMLID_111_">
		<polygon id="XMLID_54_" class="st0" points="-11.7,118.2 16.8,118.2 21.3,105.3 -1.2,99 -12.9,112.1 		"/>
		<polygon id="XMLID_53_" class="st0" points="83.7,118.2 112.2,118.2 113.3,106 94.1,99 82.5,112.1 		"/>
		<path id="XMLID_52_" class="st1" d="M84.4,91.6l-11.6-17H3.1L-6,90.1c0,0-20.7,16.8-5.7,28.1c0-7.9,6.4-14.3,14.3-14.3
			s14.3,6.4,14.3,14.3h66.9c0-7.9,6.4-14.3,14.3-14.3s14.3,6.4,14.3,14.3h3.5V96.4C115.6,96.4,110,91.9,84.4,91.6z"/>
		<path id="XMLID_51_" class="st2" d="M62.7,70.8H21.4c-6.3,0-12.5,1.3-18.2,3.8h69.7C70,72.1,66.4,70.8,62.7,70.8z"/>
		<path id="XMLID_50_" class="st3" d="M-16.5,112.1h3.1c-1.2-3.5-0.5-7,1.1-10.3h-3.2C-17,105-17.8,108.6-16.5,112.1z"/>
		<polygon id="XMLID_49_" class="st4" points="84.4,91.6 72.8,74.6 70.6,74.6 82.3,91.6 		"/>
		<circle id="XMLID_48_" class="st2" cx="2.6" cy="119.4" r="11.8"/>
		<circle id="XMLID_47_" class="st5" cx="2.6" cy="119.4" r="6.5"/>
		<circle id="XMLID_46_" class="st6" cx="2.6" cy="119.4" r="4.7"/>
		<circle id="XMLID_45_" class="st2" cx="97.9" cy="119.4" r="11.8"/>
		<circle id="XMLID_44_" class="st5" cx="97.9" cy="119.4" r="6.5"/>
		<circle id="XMLID_43_" class="st6" cx="97.9" cy="119.4" r="4.7"/>
		<polygon id="XMLID_42_" class="st4" points="36.3,91.3 3.1,91.3 10.7,76.4 36.3,76.4 		"/>
		<polygon id="XMLID_41_" class="st4" points="39.6,91.3 77.6,91.3 67.4,76.4 39.6,76.4 		"/>
		<path id="XMLID_40_" class="st6" d="M43.2,95.8h-7.9c-0.6,0-1.1,0.5-1.1,1.1s0.5,1.1,1.1,1.1h7.9c0.6,0,1.1-0.5,1.1-1.1
			C44.3,96.3,43.8,95.8,43.2,95.8z"/>
	</g>
	<path id="XMLID_39_" class="st6" d="M118.3,109.9c-0.9,0-1.6,0.7-1.6,1.6v2.7h-3.4v3h3.4v1.8c0,0.9,0.7,1.6,1.6,1.6h0.8v-10.7
		H118.3z"/>
	<path id="XMLID_21_" class="st3" d="M115.6,105.3L115.6,105.3v-8.9l0,0c1.1,0,2.1,0.9,2.1,2.1v4.8
		C117.7,104.4,116.8,105.3,115.6,105.3z"/>
</g>
</svg>
