<?xml version="1.0" encoding="utf-8"?>
<!-- Generator: Adobe Illustrator 19.0.0, SVG Export Plug-In . SVG Version: 6.00 Build 0)  -->
<svg version="1.1" id="Layer_1" xmlns="http://www.w3.org/2000/svg" xmlns:xlink="http://www.w3.org/1999/xlink" x="0px" y="0px"
	 viewBox="-39 11 180 180" style="enable-background:new -39 11 180 180;" xml:space="preserve">
<style type="text/css">
	.st0{fill:#91AAB3;}
	.st1{fill:#71CCF3;}
	.st2{fill:#4E4E4E;}
	.st3{fill:#FFFFFF;}
</style>
<g>
	<g>
		
			<rect id="XMLID_20_" x="26.1" y="79.5" transform="matrix(-0.5364 -0.844 0.844 -0.5364 -21.8 148.2238)" class="st0" width="7.5" height="1.2"/>
	</g>
	<g>
		<path id="XMLID_19_" class="st0" d="M71.5,81.3c-0.4-1-0.8-2.1-1.2-3.1c-0.8-2.1-1.6-4.3-2.5-6.4c-0.3-0.8,0.5-2,3.7-5.1
			c0.3-0.3,0.6-0.6,0.8-0.8c0.3-0.3,0.6-0.6,0.7-1c0.3-0.6,0.3-0.9,0.2-0.9c-0.2-0.3-1.7-0.1-3.1,0.5L60.4,68L60,66.9l9.7-3.5
			c0.5-0.2,3.3-1.3,4.4-0.2c0.5,0.5,0.5,1.3,0,2.3c-0.2,0.5-0.6,0.9-0.9,1.3c-0.1,0.2-0.4,0.4-0.8,0.8c-0.8,0.8-3.3,3.2-3.4,3.9
			c0.9,2.1,1.7,4.3,2.5,6.4c0.4,1,0.8,2.1,1.2,3.1L71.5,81.3z"/>
	</g>
	<g>
		<path id="XMLID_18_" class="st1" d="M60.3,68.6c-0.5,0-0.9-0.3-1.1-0.8c-0.2-0.6,0.1-1.3,0.7-1.5l8.5-3.1c0.6-0.2,1.3,0.1,1.5,0.7
			c0.2,0.6-0.1,1.3-0.7,1.5l-8.5,3.1C60.5,68.6,60.4,68.6,60.3,68.6z"/>
	</g>
	<g>
		<path class="st2" d="M12.3,89.5c-13.8,0-24.9,11.2-24.9,24.9s11.2,24.9,24.9,24.9s24.9-11.2,24.9-24.9S26,89.5,12.3,89.5z
			 M12.3,137.4c-12.6,0-22.9-10.3-22.9-22.9s10.3-22.9,22.9-22.9s22.9,10.3,22.9,22.9C35.2,127.1,24.9,137.4,12.3,137.4z"/>
	</g>
	<g>
		<path class="st2" d="M89.7,89.5c-13.8,0-24.9,11.2-24.9,24.9s11.2,24.9,24.9,24.9s24.9-11.2,24.9-24.9S103.5,89.5,89.7,89.5z
			 M89.7,137.4c-12.6,0-22.9-10.3-22.9-22.9s10.3-22.9,22.9-22.9s22.9,10.3,22.9,22.9C112.7,127.1,102.4,137.4,89.7,137.4z"/>
	</g>
	<g>
		<path class="st3" d="M12.3,137.4c-12.6,0-22.9-10.3-22.9-22.9s10.3-22.9,22.9-22.9s22.9,10.3,22.9,22.9
			C35.2,127.1,24.9,137.4,12.3,137.4z M12.3,93.3c-11.7,0-21.1,9.5-21.1,21.1s9.5,21.1,21.1,21.1c11.7,0,21.1-9.5,21.1-21.1
			S23.9,93.3,12.3,93.3z"/>
	</g>
	<g>
		<path class="st3" d="M89.7,137.4c-12.6,0-22.9-10.3-22.9-22.9s10.3-22.9,22.9-22.9s22.9,10.3,22.9,22.9
			C112.7,127.1,102.4,137.4,89.7,137.4z M89.7,93.3c-11.7,0-21.1,9.5-21.1,21.1s9.5,21.1,21.1,21.1c11.7,0,21.1-9.5,21.1-21.1
			S101.4,93.3,89.7,93.3z"/>
	</g>
	<path class="st2" d="M90.4,113.9l-6.3-7.2c-0.2-0.3-0.4-0.6-0.6-0.9l-8.8-20.7l0,0l-1.3-3.2c-0.4-1-1.5-1.7-2.6-1.7L32.6,82
		c-0.7,0-1.4,0.4-1.8,1c-0.4,0.6-0.5,1.4-0.2,2l0.1,0.4l-19.2,28.5c-0.3,0.4-0.2,1,0.2,1.2c0.2,0.1,0.3,0.2,0.5,0.2
		c0.3,0,0.6-0.1,0.7-0.4l18.7-27.6l11.6,28.4c0.2,0.6,0.8,1,1.4,1.2c0.1,0,0.2,0,0.3,0c0.5,0,1-0.2,1.4-0.6L73.5,87l8.3,19.4
		c0.2,0.5,0.5,1,0.9,1.4L89,115c0.3,0.4,0.9,0.4,1.3,0.1C90.7,114.9,90.7,114.3,90.4,113.9z M45.1,115.1
		C45.1,115.1,45.1,115.1,45.1,115.1c-0.2,0-0.2-0.1-0.2-0.1L32.7,85.2l0,0l-0.3-0.8c-0.1-0.2,0-0.3,0-0.4c0-0.1,0.1-0.2,0.3-0.2
		L70.9,82l0,0c0.4,0,0.7,0.2,0.9,0.6l1.1,2.7L45.1,115.1z"/>
	<g>
		<path class="st1" d="M12.3,120.7c-3.5,0-6.3-2.8-6.3-6.3s2.8-6.3,6.3-6.3s6.3,2.8,6.3,6.3S15.7,120.7,12.3,120.7z M12.3,109.9
			c-2.5,0-4.5,2-4.5,4.5s2,4.5,4.5,4.5s4.5-2,4.5-4.5C16.7,111.9,14.7,109.9,12.3,109.9z"/>
	</g>
	<g>
		<path class="st1" d="M89.7,120.7c-3.5,0-6.3-2.8-6.3-6.3s2.8-6.3,6.3-6.3s6.3,2.8,6.3,6.3S93.2,120.7,89.7,120.7z M89.7,109.9
			c-2.5,0-4.5,2-4.5,4.5s2,4.5,4.5,4.5s4.5-2,4.5-4.5S92.2,109.9,89.7,109.9z"/>
	</g>
	<path id="XMLID_3_" class="st1" d="M19,71.9c-2.1,2.1,6.8,7.5,10.3,5.2c1.9-1.2,4.4-1.4,6.5-1.8c0.7-0.1,1.9-0.2,2.4-0.8
		c0.8-0.8-0.3-2-1.2-2.4c-0.7-0.3-1.5-0.3-2.3-0.2c-2.1,0.1-4.2,0.6-6.3,0.8c-2.2,0.2-4-0.3-6.1-0.7C21.2,71.8,20.1,71.9,19,71.9z"
		/>
	<g>
		<path class="st0" d="M45.6,123.6c-0.4,0-0.9,0-1.3-0.1l-32.4-6.2c-0.8-0.1-1.5-0.6-1.9-1.2c-0.4-0.7-0.6-1.4-0.5-2.2
			c0.3-1.4,1.4-2.4,2.8-2.4l32.9-1.3c3.7-0.2,6.8,2.7,7,6.5c0.1,1.8-0.6,3.5-1.8,4.8c-1.2,1.3-2.9,2.1-4.7,2.2
			C45.7,123.6,45.7,123.6,45.6,123.6z M45.6,112c-0.1,0-0.1,0-0.2,0l-32.9,1.3c-0.5,0-1,0.4-1.1,1c-0.1,0.3,0,0.6,0.2,0.9
			s0.4,0.4,0.8,0.5l32.4,6.2c0.4,0.1,0.8,0.1,1.1,0.1c1.3-0.1,2.5-0.6,3.4-1.6s1.4-2.2,1.3-3.6C50.4,114,48.2,112,45.6,112z"/>
	</g>
</g>
</svg>
